#Comment line ignore any data following # character 
#Hierarchical Translation and Rotation (.htr) file 
[Header]	
#Header keywords are followed by a single value 
FileType HTR		#Single word string
DataType HTRS		#Translation followed by rotation and scale data
FileVersion 1		#integer
NumSegments 64		#integer
NumFrames 3		#integer
DataFrameRate 30		#integer, data frame rate in this file
EulerRotationOrder ZYX
CalibrationUnits mm
RotationUnits Degrees
GlobalAxisofGravity Y
BoneLengthAxis Y
ScaleFactor 1.00
[SegmentNames&Hierarchy]
#CHILD	PARENT
Pinger_Root GLOBAL
Pelvis Pinger_Root
L_Hip Pelvis
R_Hip Pelvis
Rear_Leg01 Pelvis
Spine1 Pelvis
L_Leg01 L_Hip
L_Leg02 L_Leg01
L_Leg03 L_Leg02
L_Foot L_Leg03
L_Toe1_01 L_Foot
L_Toe2_01 L_Foot
L_Toe3_01 L_Foot
planeAlignerLeft L_Foot
L_Toe1_02 L_Toe1_01
L_Toe1_03 L_Toe1_02
L_Toe2_02 L_Toe2_01
L_Toe2_03 L_Toe2_02
L_Toe3_02 L_Toe3_01
L_Toe3_03 L_Toe3_02
planeLockWeightLeft planeAlignerLeft
R_Leg01 R_Hip
R_Leg02 R_Leg01
R_Leg03 R_Leg02
R_Foot R_Leg03
planeAlignerRight R_Foot
R_Toe1_01 R_Foot
R_Toe2_01 R_Foot
R_Toe3_01 R_Foot
planeLockWeightRight planeAlignerRight
R_Toe1_02 R_Toe1_01
R_Toe1_03 R_Toe1_02
R_Toe2_02 R_Toe2_01
R_Toe2_03 R_Toe2_02
R_Toe3_02 R_Toe3_01
R_Toe3_03 R_Toe3_02
Rear_Leg02 Rear_Leg01
Rear_Leg03 Rear_Leg02
Rear_Leg04 Rear_Leg03
Rear_Foot Rear_Leg04
planeAlignerCenter Rear_Foot
Rear_Toe1_01 Rear_Foot
Rear_Toe2_01 Rear_Foot
Rear_Toe3_01 Rear_Foot
planeLockWeightCenter planeAlignerCenter
Rear_Toe1_02 Rear_Toe1_01
Rear_Toe1_03 Rear_Toe1_02
Rear_Toe2_02 Rear_Toe2_01
Rear_Toe2_03 Rear_Toe2_02
Rear_Toe3_02 Rear_Toe3_01
Rear_Toe3_03 Rear_Toe3_02
Back_Bone Spine1
Head Spine1
Motor_Bone Back_Bone
Ping_Mechanism Back_Bone
BN_LookIK Head
bottomMouth Head
L_Mouth01 Head
L_mouthFront Head
mouthGun Head
R_Mouth01 Head
R_mouthFront Head
TopMouth Head
weapon_bone Head
[BasePosition]
#SegmentName Tx, Ty, Tz, Rx, Ry, Rz, BoneLength
Pinger_Root 0.000000 0.000000 0.000000 -90.000000 0.000000 0.000000 10.000000 
Pelvis 0.000000 0.000000 0.000000 0.000000 0.000000 0.000000 10.000000 
L_Hip 0.000000 0.000000 0.000000 0.000000 0.000000 0.000000 10.000000 
R_Hip 0.000000 0.000000 0.000000 0.000000 0.000000 0.000000 10.000000 
Rear_Leg01 0.000000 0.000000 0.000000 0.000000 0.000000 0.000000 10.000000 
Spine1 0.000000 0.000000 0.000000 0.000000 0.000000 0.000000 10.000000 
L_Leg01 0.000000 0.000000 0.000000 0.000000 0.000000 0.000000 10.000000 
L_Leg02 0.000000 0.000000 0.000000 0.000000 0.000000 0.000000 10.000000 
L_Leg03 0.000000 0.000000 0.000000 0.000000 0.000000 0.000000 10.000000 
L_Foot 0.000000 0.000000 0.000000 0.000000 0.000000 0.000000 10.000000 
L_Toe1_01 0.000000 0.000000 0.000000 0.000000 0.000000 0.000000 10.000000 
L_Toe2_01 0.000000 0.000000 0.000000 0.000000 0.000000 0.000000 10.000000 
L_Toe3_01 0.000000 0.000000 0.000000 0.000000 0.000000 0.000000 10.000000 
planeAlignerLeft 0.000000 0.000000 0.000000 0.000000 0.000000 0.000000 10.000000 
L_Toe1_02 0.000000 0.000000 0.000000 0.000000 0.000000 0.000000 10.000000 
L_Toe1_03 0.000000 0.000000 0.000000 0.000000 0.000000 0.000000 10.000000 
L_Toe2_02 0.000000 0.000000 0.000000 0.000000 0.000000 0.000000 10.000000 
L_Toe2_03 0.000000 0.000000 0.000000 0.000000 0.000000 0.000000 10.000000 
L_Toe3_02 0.000000 0.000000 0.000000 0.000000 0.000000 0.000000 10.000000 
L_Toe3_03 0.000000 0.000000 0.000000 0.000000 0.000000 0.000000 10.000000 
planeLockWeightLeft 0.000000 0.000000 0.000000 0.000000 0.000000 0.000000 10.000000 
R_Leg01 0.000000 0.000000 0.000000 0.000000 0.000000 0.000000 10.000000 
R_Leg02 0.000000 0.000000 0.000000 0.000000 0.000000 0.000000 10.000000 
R_Leg03 0.000000 0.000000 0.000000 0.000000 0.000000 0.000000 10.000000 
R_Foot 0.000000 0.000000 0.000000 0.000000 0.000000 0.000000 10.000000 
planeAlignerRight 0.000000 0.000000 0.000000 0.000000 0.000000 0.000000 10.000000 
R_Toe1_01 0.000000 0.000000 0.000000 0.000000 0.000000 0.000000 10.000000 
R_Toe2_01 0.000000 0.000000 0.000000 0.000000 0.000000 0.000000 10.000000 
R_Toe3_01 0.000000 0.000000 0.000000 0.000000 0.000000 0.000000 10.000000 
planeLockWeightRight 0.000000 0.000000 0.000000 0.000000 0.000000 0.000000 10.000000 
R_Toe1_02 0.000000 0.000000 0.000000 0.000000 0.000000 0.000000 10.000000 
R_Toe1_03 0.000000 0.000000 0.000000 0.000000 0.000000 0.000000 10.000000 
R_Toe2_02 0.000000 0.000000 0.000000 0.000000 0.000000 0.000000 10.000000 
R_Toe2_03 0.000000 0.000000 0.000000 0.000000 0.000000 0.000000 10.000000 
R_Toe3_02 0.000000 0.000000 0.000000 0.000000 0.000000 0.000000 10.000000 
R_Toe3_03 0.000000 0.000000 0.000000 0.000000 0.000000 0.000000 10.000000 
Rear_Leg02 0.000000 0.000000 0.000000 0.000000 0.000000 0.000000 10.000000 
Rear_Leg03 0.000000 0.000000 0.000000 0.000000 0.000000 0.000000 10.000000 
Rear_Leg04 0.000000 0.000000 0.000000 0.000000 0.000000 0.000000 10.000000 
Rear_Foot 0.000000 0.000000 0.000000 0.000000 0.000000 0.000000 10.000000 
planeAlignerCenter 0.000000 0.000000 0.000000 0.000000 0.000000 0.000000 10.000000 
Rear_Toe1_01 0.000000 0.000000 0.000000 0.000000 0.000000 0.000000 10.000000 
Rear_Toe2_01 0.000000 0.000000 0.000000 0.000000 0.000000 0.000000 10.000000 
Rear_Toe3_01 0.000000 0.000000 0.000000 0.000000 0.000000 0.000000 10.000000 
planeLockWeightCenter 0.000000 0.000000 0.000000 0.000000 0.000000 0.000000 10.000000 
Rear_Toe1_02 0.000000 0.000000 0.000000 0.000000 0.000000 0.000000 10.000000 
Rear_Toe1_03 0.000000 0.000000 0.000000 0.000000 0.000000 0.000000 10.000000 
Rear_Toe2_02 0.000000 0.000000 0.000000 0.000000 0.000000 0.000000 10.000000 
Rear_Toe2_03 0.000000 0.000000 0.000000 0.000000 0.000000 0.000000 10.000000 
Rear_Toe3_02 0.000000 0.000000 0.000000 0.000000 0.000000 0.000000 10.000000 
Rear_Toe3_03 0.000000 0.000000 0.000000 0.000000 0.000000 0.000000 10.000000 
Back_Bone 0.000000 0.000000 0.000000 0.000000 0.000000 0.000000 10.000000 
Head 0.000000 0.000000 0.000000 0.000000 0.000000 0.000000 10.000000 
Motor_Bone 0.000000 0.000000 0.000000 0.000000 0.000000 0.000000 10.000000 
Ping_Mechanism 0.000000 0.000000 0.000000 0.000000 0.000000 0.000000 10.000000 
BN_LookIK 0.000000 0.000000 0.000000 0.000000 0.000000 0.000000 10.000000 
bottomMouth 0.000000 0.000000 0.000000 0.000000 0.000000 0.000000 10.000000 
L_Mouth01 0.000000 0.000000 0.000000 0.000000 0.000000 0.000000 10.000000 
L_mouthFront 0.000000 0.000000 0.000000 0.000000 0.000000 0.000000 10.000000 
mouthGun 0.000000 0.000000 0.000000 0.000000 0.000000 0.000000 10.000000 
R_Mouth01 0.000000 0.000000 0.000000 0.000000 0.000000 0.000000 10.000000 
R_mouthFront 0.000000 0.000000 0.000000 0.000000 0.000000 0.000000 10.000000 
TopMouth 0.000000 0.000000 0.000000 0.000000 0.000000 0.000000 10.000000 
weapon_bone 0.000000 0.000000 0.000000 0.000000 0.000000 0.000000 10.000000 
#Beginning of Data. Separated by tabs
#Fr	Tx	Ty	Tz	Rx	Ry	Rz	SF
[Pinger_Root]
18 0.000000 0.000000 0.000000 -0.000075 -0.000000 -0.000020 0.000000
19 0.000000 0.000000 0.000000 -0.000075 -0.000000 -0.000020 0.000000
20 0.000000 0.000000 0.000000 -0.000075 -0.000000 -0.000020 0.000000
[Pelvis]
18 28.068291 1669.219604 3424.362549 -73.174187 -77.566093 62.473885 3809.637939
19 70.542114 1589.699951 3465.166748 -79.705238 -78.980141 69.947929 3813.070068
20 110.185768 1509.894653 3513.065430 -88.113373 -80.185860 79.296959 3825.382568
[L_Hip]
18 5.766392 125.831482 872.656799 -153.065842 -69.088455 85.405785 881.701050
19 5.766392 125.831482 872.656799 -161.759491 -61.463867 90.588547 881.701050
20 5.766392 125.831482 872.656799 -166.201614 -55.030609 91.668533 881.701050
[R_Hip]
18 5.765438 125.836372 -872.654907 -90.327385 57.805019 -23.616955 881.699829
19 5.765438 125.836372 -872.654907 -91.096832 65.026863 -26.671144 881.699829
20 5.765438 125.836372 -872.654907 -92.165688 72.719826 -29.450035 881.699829
[Rear_Leg01]
18 -192.298416 -925.602966 -0.001907 173.637039 12.572580 -138.948547 945.367432
19 -192.298416 -925.602966 -0.001907 172.620163 10.045641 -137.227631 945.367432
20 -192.298416 -925.602966 -0.001907 171.376678 7.625206 -136.105515 945.367432
[Spine1]
18 290.604584 5.007505 0.000477 1.947094 -11.879650 28.330208 290.647736
19 290.604584 5.007505 0.000477 2.718204 -9.471331 28.618166 290.647736
20 290.604584 5.007505 0.000477 3.530928 -7.127654 28.636597 290.647736
[L_Leg01]
18 761.932007 -0.002384 -0.069261 50.674545 -37.039364 -48.882435 761.932068
19 761.932007 -0.002384 -0.069261 45.903088 -27.751989 -44.380619 761.932068
20 761.932007 -0.002384 -0.069261 43.043938 -19.355648 -42.299553 761.932068
[L_Leg02]
18 1441.140503 -0.000954 -0.000715 8.253219 4.637144 -131.601913 1441.140503
19 1441.140503 -0.000954 -0.000715 8.226910 4.510715 -133.844086 1441.140503
20 1441.140503 -0.000954 -0.000715 7.971848 3.998500 -133.064087 1441.140503
[L_Leg03]
18 1686.963989 -0.000715 -0.000954 -0.142290 0.091804 148.556061 1686.963989
19 1686.963989 -0.000715 -0.000954 -0.137917 0.092569 148.077957 1686.963989
20 1686.963989 -0.000715 -0.000954 -0.132963 0.087436 146.573044 1686.963989
[L_Foot]
18 3041.570068 -30.715107 11.297464 -2.703302 39.710346 53.289902 3041.746094
19 3041.570068 -30.715107 11.297464 -4.403472 37.575809 52.914467 3041.746094
20 3041.570068 -30.715107 11.297464 -5.870867 35.222343 51.391064 3041.746094
[L_Toe1_01]
18 -188.216690 -224.732346 -21.137953 94.115700 -1.626563 -179.630325 293.899567
19 -188.216690 -224.732346 -21.137953 94.115700 -1.626563 -179.630325 293.899567
20 -188.216690 -224.732346 -21.137953 94.115700 -1.626565 -179.630325 293.899567
[L_Toe2_01]
18 200.746536 -219.926590 148.838394 -98.201508 -27.887074 -34.223183 332.896027
19 200.746536 -219.926590 148.838394 -98.201500 -27.886824 -34.223476 332.896027
20 200.746536 -219.926590 148.838394 -98.201469 -27.886574 -34.223778 332.896027
[L_Toe3_01]
18 188.832520 -219.859131 -191.078659 -99.859138 29.452524 -64.657150 347.140900
19 188.832520 -219.859131 -191.078659 -99.858688 29.452793 -64.657082 347.140900
20 188.832520 -219.859131 -191.078659 -99.858231 29.453068 -64.657013 347.140900
[planeAlignerLeft]
18 0.812531 -811.448792 -0.314951 0.000000 -90.000000 -90.001900 811.449280
19 0.812531 -811.448792 -0.314951 0.000000 -90.000000 -90.001900 811.449280
20 0.812531 -811.448792 -0.314951 0.000000 -90.000000 -90.001900 811.449280
[L_Toe1_02]
18 413.761139 0.000477 0.000000 0.001661 0.070897 0.001661 413.761139
19 413.761139 0.000477 0.000000 0.001661 0.070897 0.001661 413.761139
20 413.761139 0.000477 0.000000 0.001661 0.070897 0.001661 413.761139
[L_Toe1_03]
18 464.317322 0.000358 -0.000089 0.001673 -0.448396 -0.003292 464.317322
19 464.317322 0.000358 -0.000089 0.001673 -0.448396 -0.003292 464.317322
20 464.317322 0.000358 -0.000089 0.001673 -0.448396 -0.003292 464.317322
[L_Toe2_02]
18 342.235809 -0.000477 0.000238 0.004684 -81.212822 0.004684 342.235809
19 342.235809 -0.000477 0.000238 0.004684 -81.210007 0.004684 342.235809
20 342.235809 -0.000477 0.000238 0.004684 -81.207100 0.004684 342.235809
[L_Toe2_03]
18 420.210846 -0.000715 0.000000 179.993271 42.301826 -179.999084 420.210846
19 420.210846 -0.000715 0.000000 179.993271 42.301838 -179.999084 420.210846
20 420.210846 -0.000715 0.000000 179.993271 42.301846 -179.999084 420.210846
[L_Toe3_02]
18 329.270111 0.000954 0.000000 0.004675 -84.710762 0.004675 329.270111
19 329.270111 0.000954 0.000000 0.004675 -84.713905 0.004675 329.270111
20 329.270111 0.000954 0.000000 0.004675 -84.716949 0.004675 329.270111
[L_Toe3_03]
18 439.137451 -0.001907 0.000954 179.993088 46.274662 -179.999390 439.137451
19 439.137451 -0.001907 0.000954 179.993088 46.274670 -179.999390 439.137451
20 439.137451 -0.001907 0.000954 179.993088 46.274670 -179.999390 439.137451
[planeLockWeightLeft]
18 -0.000954 0.000238 -0.000305 -0.011826 -0.004376 0.005620 0.001029
19 -0.000954 0.000238 -0.000305 -0.011826 -0.004376 0.005620 0.001029
20 -0.000954 0.000238 -0.000305 -0.011826 -0.004376 0.005620 0.001029
[R_Leg01]
18 761.455627 -0.001907 -0.000358 100.276253 7.765860 98.967163 761.455688
19 761.455627 -0.001907 -0.000358 100.684319 10.704981 94.527161 761.455688
20 761.455627 -0.001907 -0.000358 101.040092 13.052492 89.410568 761.455688
[R_Leg02]
18 1441.140625 0.000000 -0.000238 -2.203494 -0.682106 -89.396004 1441.140625
19 1441.140625 0.000000 -0.000238 -2.283240 -0.757649 -90.367859 1441.140625
20 1441.140625 0.000000 -0.000238 -2.361693 -0.834533 -91.339592 1441.140625
[R_Leg03]
18 1686.963989 0.000954 0.001431 0.115931 -0.071032 141.183319 1686.963989
19 1686.963989 0.000954 0.001431 0.118606 -0.073328 141.939301 1686.963989
20 1686.963989 0.000954 0.001431 0.121251 -0.075660 142.695267 1686.963989
[R_Foot]
18 3041.560059 -30.531288 -11.204481 -0.936960 -10.151050 40.437778 3041.734131
19 3041.560059 -30.531288 -11.204481 -2.653460 -9.848959 40.419361 3041.734131
20 3041.560059 -30.531288 -11.204481 -4.090696 -10.090585 40.622696 3041.734131
[planeAlignerRight]
18 -0.635147 -812.270569 -0.364304 0.000000 -89.960434 -90.005180 812.270874
19 -0.635147 -812.270569 -0.364304 0.000000 -89.960434 -90.005180 812.270874
20 -0.635147 -812.270569 -0.364304 0.000000 -89.960434 -90.005180 812.270874
[R_Toe1_01]
18 -188.383347 -224.864899 21.052242 77.323616 -4.365147 -175.379013 294.101532
19 -188.383347 -224.864899 21.052242 77.323616 -4.364865 -175.379364 294.101532
20 -188.383347 -224.864899 21.052242 77.323624 -4.364583 -175.379715 294.101532
[R_Toe2_01]
18 200.637817 -220.002121 -148.787384 -84.724457 32.131763 -46.480873 332.857574
19 200.637817 -220.002121 -148.787384 -84.724457 32.131763 -46.480873 332.857574
20 200.637817 -220.002121 -148.787384 -84.724457 32.131763 -46.480873 332.857574
[R_Toe3_01]
18 188.606735 -220.092957 191.126343 -71.132469 -17.482462 -68.403214 347.192566
19 188.606735 -220.092957 191.126343 -71.131187 -17.486088 -68.405869 347.192566
20 188.606735 -220.092957 191.126343 -71.129898 -17.489714 -68.408508 347.192566
[planeLockWeightRight]
18 -0.000477 0.000000 0.000000 -0.011823 -0.004379 -0.000027 0.000477
19 -0.000477 0.000000 0.000000 -0.011823 -0.004379 -0.000027 0.000477
20 -0.000477 0.000000 0.000000 -0.011823 -0.004379 -0.000027 0.000477
[R_Toe1_02]
18 413.762085 0.000477 -0.000119 0.001385 -25.834715 0.001385 413.762085
19 413.762085 0.000477 -0.000119 0.001385 -25.830530 0.001385 413.762085
20 413.762085 0.000477 -0.000119 0.001385 -25.826353 0.001385 413.762085
[R_Toe1_03]
18 464.317810 0.000000 0.001088 0.004309 58.392216 0.004309 464.317810
19 464.317810 0.000000 0.001088 0.004309 58.392216 0.004309 464.317810
20 464.317810 0.000000 0.001088 0.004309 58.392216 0.004309 464.317810
[R_Toe2_02]
18 342.234741 -0.000954 0.000238 -0.002336 -78.158646 -0.002336 342.234741
19 342.234741 -0.000954 0.000238 -0.002336 -78.158310 -0.002336 342.234741
20 342.234741 -0.000954 0.000238 -0.002336 -78.157951 -0.002336 342.234741
[R_Toe2_03]
18 420.210846 0.000715 -0.000268 -179.993973 74.506569 -179.997513 420.210846
19 420.210846 0.000715 -0.000268 -179.993973 74.506905 -179.997513 420.210846
20 420.210846 0.000715 -0.000268 -179.993973 74.507256 -179.997513 420.210846
[R_Toe3_02]
18 329.270355 -0.000477 -0.000954 0.001177 -80.759201 0.001177 329.270355
19 329.270355 -0.000477 -0.000954 0.001177 -80.759201 0.001177 329.270355
20 329.270355 -0.000477 -0.000954 0.001177 -80.759201 0.001177 329.270355
[R_Toe3_03]
18 439.137939 0.000238 0.001431 -179.996521 77.411743 -179.992996 439.137939
19 439.137939 0.000238 0.001431 -179.996521 77.412064 -179.992996 439.137939
20 439.137939 0.000238 0.001431 -179.996521 77.412399 -179.992996 439.137939
[Rear_Leg02]
18 1162.777710 -0.029802 0.005960 -1.448606 14.951921 -99.373451 1162.777710
19 1162.777710 -0.029802 0.005960 -2.664316 13.046219 -103.748123 1162.777710
20 1162.777710 -0.029802 0.005960 -3.376196 11.112875 -107.678955 1162.777710
[Rear_Leg03]
18 607.192505 -0.013351 -0.073195 0.006507 -0.002010 62.542576 607.192505
19 607.192505 -0.013351 -0.073195 0.010639 -0.004791 64.842331 607.192505
20 607.192505 -0.013351 -0.073195 0.010556 -0.004972 66.798203 607.192505
[Rear_Leg04]
18 995.874512 -0.020504 -0.011921 -0.040067 -0.016405 54.741322 995.874573
19 995.874512 -0.020504 -0.011921 -0.040656 -0.014784 59.306431 995.874573
20 995.874512 -0.020504 -0.011921 -0.043746 -0.017556 63.331188 995.874573
[Rear_Foot]
18 3096.176270 -0.067472 -0.041425 48.402691 75.712318 -108.752747 3096.176270
19 3096.176270 -0.067472 -0.041425 53.182102 77.949921 -105.821136 3096.176270
20 3096.176270 -0.067472 -0.041425 59.665165 80.110771 -101.177162 3096.176270
[planeAlignerCenter]
18 0.350077 0.966311 -838.790894 0.000009 0.000003 -179.999985 838.791565
19 0.350077 0.966311 -838.790894 0.000009 0.000003 -179.999985 838.791565
20 0.350077 0.966311 -838.790894 0.000009 0.000003 -179.999985 838.791565
[Rear_Toe1_01]
18 0.653352 83.966492 -371.173737 0.440979 29.524776 90.703545 380.553192
19 0.653352 83.966492 -371.173737 0.396434 33.612228 90.608505 380.553192
20 0.653352 83.966492 -371.173737 0.340990 37.699615 90.504440 380.553192
[Rear_Toe2_01]
18 178.200760 -294.826019 -362.060547 -8.297362 25.331560 -68.913612 499.765686
19 178.200760 -294.826019 -362.060547 -8.063305 28.531055 -68.131447 499.765686
20 178.200760 -294.826019 -362.060547 -7.713407 31.445004 -67.279465 499.765686
[Rear_Toe3_01]
18 -153.359680 -308.780914 -362.060852 3.817315 23.747601 -110.795357 499.952881
19 -153.359680 -308.780914 -362.060852 3.748684 27.289742 -111.248199 499.952881
20 -153.359680 -308.780914 -362.060852 3.573524 30.412518 -111.834023 499.952881
[planeLockWeightCenter]
18 -0.000062 0.000238 0.000000 -0.011814 -0.004373 -0.000015 0.000246
19 -0.000062 0.000238 0.000000 -0.011814 -0.004373 -0.000015 0.000246
20 -0.000062 0.000238 0.000000 -0.011814 -0.004373 -0.000015 0.000246
[Rear_Toe1_02]
18 379.707825 0.194073 0.000477 -0.002643 -33.010460 -0.002643 379.707855
19 379.707825 0.194073 0.000477 -0.004350 -33.562786 0.003045 379.707855
20 379.707825 0.194073 0.000477 0.001333 -33.407848 0.001333 379.707855
[Rear_Toe1_03]
18 500.129700 0.165701 0.000119 -0.022173 87.246651 -0.025671 500.129761
19 500.129700 0.165701 0.000119 0.010628 77.320450 0.010628 500.129761
20 500.129700 0.165701 0.000119 -0.004578 66.236244 -0.001005 500.129761
[Rear_Toe2_02]
18 340.494507 0.000238 -0.000954 0.001217 -59.399376 0.001217 340.494507
19 340.494507 0.000238 -0.000954 0.001205 -63.804344 0.001205 340.494507
20 340.494507 0.000238 -0.000954 0.001197 -67.126289 0.001197 340.494507
[Rear_Toe2_03]
18 433.103577 0.000000 0.000238 0.003943 55.322224 0.003943 433.103546
19 433.103577 0.000000 0.000238 0.004702 61.089977 0.004702 433.103546
20 433.103577 0.000000 0.000238 0.005584 65.735100 0.005584 433.103546
[Rear_Toe3_02]
18 340.494141 -0.000358 -0.000477 -0.002441 -54.248306 -0.002441 340.494171
19 340.494141 -0.000358 -0.000477 -0.002406 -59.769791 -0.002406 340.494171
20 340.494141 -0.000358 -0.000477 0.007147 -63.880096 -0.008327 340.494171
[Rear_Toe3_03]
18 433.103577 0.001431 -0.000238 0.000223 49.060318 -0.003516 433.103546
19 433.103577 0.001431 -0.000238 -0.000126 55.813457 -0.003784 433.103546
20 433.103577 0.001431 -0.000238 -0.000506 61.204876 -0.004116 433.103546
[Back_Bone]
18 1312.175781 -701.934692 0.000954 1.689398 2.856681 -83.521927 1488.125488
19 1312.175781 -701.934692 0.000954 0.560397 3.292861 -86.699547 1488.125488
20 1312.175781 -701.934692 0.000954 -0.462788 3.722579 -89.489830 1488.125488
[Head]
18 1406.159424 809.709290 0.001431 -0.804666 -1.371613 40.855526 1622.625488
19 1406.159424 809.709290 0.001431 -0.760542 -1.397700 38.979427 1622.625488
20 1406.159424 809.709290 0.001431 -0.715587 -1.422329 37.103275 1622.625488
[Motor_Bone]
18 1158.364380 -417.834747 0.000477 -0.247933 -9.317281 -125.425087 1231.419434
19 1158.364380 -417.834747 0.000477 0.083833 -6.789432 -125.207489 1231.419434
20 1158.364380 -417.834747 0.000477 0.768214 -3.640707 -125.043442 1231.419434
[Ping_Mechanism]
18 1259.922119 -467.042358 30.303869 0.000103 -0.000053 82.120995 1344.042603
19 1257.318481 -463.340759 20.449163 0.000103 -0.000053 82.120995 1340.131470
20 1256.046997 -460.062531 11.277971 0.000103 -0.000053 82.120995 1337.699097
[BN_LookIK]
18 193.241119 1380.371704 -0.002861 0.000000 89.965736 -31.038179 1393.832153
19 193.241119 1380.371704 -0.002861 0.000000 89.965736 -31.038179 1393.832153
20 193.241119 1380.371704 -0.002861 0.000000 89.965736 -31.038179 1393.832153
[bottomMouth]
18 -435.092926 615.759399 -0.000954 -0.000022 0.000016 73.527184 753.966492
19 -435.092926 615.759399 -0.000954 -0.000022 0.000016 73.527184 753.966492
20 -435.092926 615.759399 -0.000954 -0.000022 0.000016 73.527184 753.966492
[L_Mouth01]
18 554.440979 7.658243 838.222046 150.204178 23.759130 109.605339 1005.027161
19 554.440979 7.658243 838.222046 150.204178 23.759130 109.605339 1005.027161
20 554.440979 7.658243 838.222046 150.204178 23.759130 109.605339 1005.027161
[L_mouthFront]
18 551.629089 934.514771 339.150421 0.000081 2.804060 79.119301 1136.941284
19 551.629089 934.514771 339.150421 0.000081 2.804060 79.119301 1136.941284
20 551.629089 934.514771 339.150421 0.000081 2.804060 79.119301 1136.941284
[mouthGun]
18 55.332661 1627.420898 0.000000 0.000023 0.000009 -11.038128 1628.361328
19 55.332661 1627.420898 0.000000 0.000023 0.000009 -11.038128 1628.361328
20 55.332661 1627.420898 0.000000 0.000023 0.000009 -11.038128 1628.361328
[R_Mouth01]
18 554.442383 7.659197 -838.223938 29.795891 -23.759109 109.605331 1005.029541
19 554.442383 7.659197 -838.223938 29.795891 -23.759109 109.605331 1005.029541
20 554.442383 7.659197 -838.223938 29.795891 -23.759109 109.605331 1005.029541
[R_mouthFront]
18 551.629089 934.514282 -339.151367 0.000029 -2.803930 79.119133 1136.941162
19 551.629089 934.514282 -339.151367 0.000029 -2.803930 79.119133 1136.941162
20 551.629089 934.514282 -339.151367 0.000029 -2.803930 79.119133 1136.941162
[TopMouth]
18 461.269867 -56.106091 -0.008583 -0.000059 -0.000268 92.025169 464.669525
19 461.269867 -56.106091 -0.008583 -0.000059 -0.000268 92.025169 464.669525
20 461.269867 -56.106091 -0.008583 -0.000059 -0.000268 92.025169 464.669525
[weapon_bone]
18 -987.239868 1448.372803 0.001431 0.000000 89.965736 -31.038221 1752.833740
19 -987.239868 1448.372803 0.001431 0.000000 89.965736 -31.038221 1752.833740
20 -987.239868 1448.372803 0.001431 0.000000 89.965736 -31.038221 1752.833740
